<svg width="96" height="96" xmlns="http://www.w3.org/2000/svg" xmlns:xlink="http://www.w3.org/1999/xlink" overflow="hidden"><defs><clipPath id="clip0"><rect x="0" y="0" width="96" height="96"/></clipPath></defs><g clip-path="url(#clip0)"><path d="M74.3 29.8 70.4 33.7C78.5 41.8 78.5 55 70.4 63.1L74.3 67C84.5 56.7 84.6 40.1 74.3 29.8Z"/><path d="M62.7 55.4 66.6 59.3C72.5 53.5 72.6 43.9 66.8 38 66.7 37.9 66.6 37.8 66.6 37.8L62.7 41.7C66.5 45.5 66.5 51.6 62.7 55.4Z"/><path d="M12.2 34.6 12.2 61.4 31.6 61.4 56.7 82 56.7 14 31.6 34.6Z"/></g></svg>